<?xml version="1.0" encoding="UTF-8" standalone="no"?>
<!-- Created with Inkscape (http://www.inkscape.org/) -->

<svg
   version="1.1"
   id="svg1"
   width="700"
   height="700"
   viewBox="0 0 700 700"
   xmlns="http://www.w3.org/2000/svg"
   xmlns:svg="http://www.w3.org/2000/svg">
  <defs
     id="defs1" />
  <g
     id="layer2"
     transform="translate(-165.84574,-80.55454)">
    <g
       id="layer4"
       transform="translate(165.84574,80.55454)"
       style="fill:#000000;fill-opacity:1">
      <rect
         style="opacity:0.99;fill:#000000;fill-opacity:1;stroke-width:0;stroke-opacity:0.252174"
         id="rect1"
         width="700"
         height="700"
         x="-0.61096954"
         y="-0.33420181" />
    </g>
    <path
       d="m 509.10171,703.98278 c -2.73251,-3.0194 -2.27357,-99.93847 0.85231,-179.98895 0.89027,-22.79894 1.09174,-51.86764 0.50365,-72.66667 -4.51846,-159.80381 -4.60677,-293.4827 -0.19521,-295.49275 8.93628,-4.07163 10.40894,0.50012 9.2396,28.68346 -1.79731,43.31849 -1.25671,197.70616 0.81986,234.14263 2.32883,40.86254 2.38706,63.27383 0.26332,101.33333 -0.92071,16.5 -1.93741,64.44877 -2.25934,106.55282 -0.40722,53.25934 -1.03495,77.09459 -2.06301,78.33333 -2.076,2.50143 -4.34244,2.21747 -7.16118,-0.8972 z m 29.13836,-25.44704 c 0.44651,-6.16472 1.15873,-31.60858 1.58271,-56.54191 0.42398,-24.93333 1.62214,-60.93333 2.66256,-80 3.45908,-63.39046 3.78038,-94.23823 1.4304,-137.33333 -4.49347,-82.40371 -6.94465,-231.43598 -3.80403,-231.28539 8.747,0.41943 8.9667,2.25822 9.11124,76.25801 0.0749,38.33172 0.80689,81.09404 1.62669,95.02738 3.67097,62.39181 4.59347,107.33752 3.01027,146.66666 -3.62616,90.08004 -3.99671,103.4264 -4.03809,145.44064 -0.0434,44.10731 -0.0434,44.10731 -6.21852,48.54192 -6.17507,4.4346 -6.17507,4.4346 -5.36323,-6.77398 z m -54.81019,5.37016 c -4.3485,-4.07558 -4.3485,-4.07558 -3.67451,-41.66049 0.3707,-20.6717 0.98445,-64.28491 1.3639,-96.91825 0.40139,-34.52085 1.54349,-69.9851 2.73106,-84.80459 1.8404,-22.96606 1.83718,-27.16251 -0.0327,-42.66667 -8.57844,-71.1281 -9.35079,-233.86719 -1.13965,-240.13013 6.19816,-4.72757 5.99204,-6.41912 4.35519,35.74151 -2.09066,53.84939 1.0882,172.90881 5.58075,209.01874 1.27176,10.22201 1.24053,16.37652 -0.1531,30.17448 -1.22808,12.15888 -1.92023,49.87269 -2.31856,126.33333 -0.31232,59.95 -0.97196,108.99722 -1.46586,108.99383 -0.49391,-0.003 -2.85485,-1.84018 -5.24652,-4.08176 z m -26.72216,-21.36075 c -6.74836,-4.9628 -6.55296,-1.7344 -3.33303,-55.06815 3.45429,-57.21568 3.33777,-168.12818 -0.20327,-193.48317 -5.89283,-42.19455 -3.96026,-209.94078 2.47651,-214.96046 6.91524,-5.39281 6.42599,-8.99457 4.67471,34.41398 -2.06425,51.16641 -0.83045,149.14223 2.16448,171.87981 3.46573,26.31188 4.15764,128.82573 1.30699,193.64355 -1.23419,28.06272 -1.84486,54.77312 -1.35706,59.35645 1.03539,9.72841 1.39933,9.46047 -5.72933,4.21799 z m 112.49212,-58.95336 c 0.34258,-33.14554 1.32646,-79.16463 2.18639,-102.26463 2.069,-55.579 1.79543,-98.56046 -0.89108,-140 -5.55091,-85.62301 -4.3305,-167.59104 2.41133,-161.95556 6.17907,5.16506 6.17907,5.16506 5.26006,16.56031 -1.81364,22.48825 -1.05432,96.73838 1.48689,145.39525 2.37941,45.55891 2.43022,54.07331 0.79569,133.33334 -0.96032,46.56666 -1.45604,101.76666 -1.1016,122.66666 0.64442,38 0.64442,38 -5.06307,42.26463 -5.7075,4.26463 -5.7075,4.26463 -5.08461,-56 z m -137.42146,38.26835 c -1.46667,-1.12689 -3.44089,-2.49521 -4.38715,-3.04072 -1.39965,-0.80688 -1.45576,-15.2733 -0.30089,-77.57538 0.8413,-45.38558 0.99901,-101.26333 0.38716,-137.16653 -1.32136,-77.5358 0.21901,-105.71841 4.84021,-88.55657 4.95437,18.39912 7.74877,308.67123 2.9692,308.43049 -0.46302,-0.0233 -2.04186,-0.96441 -3.50853,-2.09129 z m 169.10857,-13.05641 c 0.48103,-5.69055 1.24614,-50.65073 1.70024,-99.91151 0.80818,-87.67023 0.62857,-95.15868 -3.47541,-144.89839 -2.99232,-36.26661 -3.13055,-164.00901 -0.17746,-163.99639 8.70676,0.0372 14.01686,10.46195 12.20309,32.13344 -4.55638,54.44129 -6.2596,78.96817 -0.0737,159.19628 2.11568,27.43932 2.3763,42.16653 1.82862,103.33334 -0.35128,39.23333 -0.14563,80.8197 0.45701,92.41416 1.22287,23.52711 1.78579,21.6728 -8.78729,28.94587 -4.54968,3.12965 -4.54968,3.12965 -3.67509,-7.2168 z m -198.26196,-9.58669 c -3.82005,-3.35918 -3.82005,-3.35918 -2.18227,-25.62453 2.18188,-29.66219 2.19574,-71.75034 0.0328,-99.59868 -1.32143,-17.01376 -1.54601,-40.12416 -0.9005,-92.66667 0.73397,-59.74335 0.18336,-97.15957 -2.18959,-148.78993 -0.36913,-8.0315 -0.3163,-8.16427 4.67647,-11.75314 5.04981,-3.62987 5.04981,-3.62987 5.07182,2.78993 0.0121,3.5309 0.89921,21.41981 1.97136,39.75314 2.33553,39.93699 2.48291,71.78277 0.59493,128.5499 -1.17491,35.32701 -1.04998,49.35158 0.74485,83.61496 2.52201,48.14509 0.59448,127.29833 -3.09576,127.12634 -0.49723,-0.0232 -2.62308,-1.55377 -4.72411,-3.40132 z M 636.85574,531.8752 c 0.81764,-85.36773 1.32885,-94.01266 8.31105,-140.54804 4.98515,-33.22526 7.24621,-65.89879 7.26617,-105 0.007,-13.01666 0.40545,-23.66666 0.88623,-23.66666 13.43237,0 13.18115,40.76538 -0.89564,145.33333 -5.22684,38.82705 -7.36971,148.9932 -3.47457,178.62998 1.84071,14.00532 1.85975,13.95942 -9.01128,21.72319 -3.84067,2.74289 -3.84067,2.74289 -3.08196,-76.4718 z m -260.04747,65.74943 c -4.30344,-3.6308 -4.30344,-3.6308 -4.83397,-36.29747 -0.36295,-22.3487 -1.43661,-40.03664 -3.3992,-56 -4.165,-33.87744 -5.31653,-68.92034 -4.0528,-123.33333 0.61314,-26.4 1.17978,-62.7 1.25921,-80.66667 0.14441,-32.66666 0.14441,-32.66666 3.93662,-35.65708 7.65717,-6.03821 7.48103,-6.58537 6.43025,19.97432 -2.24001,56.61933 -1.84438,184.39927 0.64097,207.0161 5.56233,50.61761 6.36641,59.96536 7.19695,83.66666 0.97314,27.77067 0.86715,28.08515 -7.17803,21.29747 z m -27.59519,-20.87544 c -5.23197,-4.47785 -5.23197,-4.47785 -5.5812,-20.94994 -0.19208,-9.05965 -1.71063,-31.17209 -3.37457,-49.13875 -6.179,-66.71911 -3.23126,-213.87464 4.4136,-220.33334 5.96165,-5.03664 6.81291,-4.65241 5.90801,2.66667 -3.92421,31.73996 -5.4079,166.19327 -2.18125,197.66667 4.38017,42.72512 5.29439,52.87077 6.00729,66.66666 0.43578,8.43334 1.09374,18.18334 1.46213,21.66667 0.79201,7.48882 0.22102,7.63945 -6.65401,1.75536 z m 322.46926,-6.42203 c 0.39036,-6.05 1.043,-29.3 1.45032,-51.66666 0.84717,-46.51959 2.62495,-82.34004 5.32699,-107.33334 2.7635,-25.56176 5.07318,-80.92215 4.37983,-104.97971 -0.33319,-11.56116 -0.37306,-21.02029 -0.0886,-21.02029 11.8896,0 14.52626,63.81978 5.64626,136.66667 -3.32966,27.31478 -5.43471,73.63174 -5.0501,111.11619 0.40136,39.11619 0.40136,39.11619 -4.56407,43.66667 -7.30814,6.69741 -7.91342,6.14764 -7.10063,-6.44953 z M 322.90042,554.26757 c -4.76044,-4.18292 -4.88066,-4.52876 -5.65683,-16.27374 -0.43617,-6.6 -1.67763,-21 -2.7588,-32 -4.73772,-48.20212 -5.49815,-106.75942 -2.27359,-175.07952 0.96961,-20.54357 0.965,-20.5316 9.90051,-25.67199 2.93955,-1.69106 2.93665,-2.24385 0.15785,30.0981 -4.91335,57.18545 -2.6173,145.32918 5.40047,207.32008 2.1146,16.34944 1.7201,17.30946 -4.76961,11.60707 z m 382.33572,-7.27374 c 1.17723,-16.76917 3.52251,-46.54268 6.01285,-76.33333 5.51418,-65.96349 5.71316,-86.82111 1.41511,-148.33334 -1.01095,-14.46839 -0.7816,-14.81226 5.78035,-8.66666 8.02252,7.51348 9.83098,94.26258 3.38416,162.33333 -1.49322,15.76667 -3.2995,37.96667 -4.01394,49.33333 -1.29899,20.66667 -1.29899,20.66667 -6.33431,24.98017 -6.66509,5.70964 -6.87003,5.60089 -6.24422,-3.3135 z M 291.35715,530.47837 c -4.07407,-3.3141 -7.04569,-6.90623 -7.44534,-9 -3.08331,-16.15351 -4.48259,-177.92595 -1.59285,-184.15121 1.1897,-2.56293 12.76263,-11.14123 13.72808,-10.17578 0.40155,0.40155 -0.69463,11.10537 -2.43595,23.78627 -5.36227,39.04981 -3.64747,110.87556 3.99632,167.38951 2.70186,19.97606 2.89864,19.5935 -6.25026,12.15121 z m 441.68409,-4.15121 c 9.02459,-67.32479 11.67979,-154.02106 5.69865,-186.06898 -2.17229,-11.63947 -1.40918,-12.55891 4.75793,-5.73265 6.76812,7.49149 10.07776,104.84781 4.96344,146.00448 -0.78862,6.34627 -1.95502,18.52165 -2.59201,27.0564 -1.15816,15.51774 -1.15816,15.51774 -6.29118,19.91252 -6.70015,5.73652 -7.44495,5.60301 -6.53683,-1.17177 z M 626.05825,340.99383 c -1.08269,-14.18419 -1.16906,-26.38167 -0.2856,-40.33333 0.69655,-11 1.28279,-28.99 1.30276,-39.97778 0.0363,-19.97778 0.0363,-19.97778 4.94344,-15.07064 5.74094,5.74094 6.21858,21.69969 2.326,77.71508 -3.27104,47.07115 -5.6543,52.15217 -8.2866,17.66667 z M 425.963,249.6605 c -3.65972,-14.62141 -3.16768,-24.08344 1.47184,-28.30393 6.32673,-5.75531 6.34354,-5.71652 6.34354,14.63726 0,20.31546 -4.27851,27.79724 -7.81538,13.66667 z"
       style="opacity:1;mix-blend-mode:normal;fill:#a94300;fill-opacity:0.9375;stroke:none;stroke-width:0;stroke-dasharray:none;stroke-opacity:0.252174"
       id="path1" />
  </g>
  <g
     id="layer1"
     style="fill:#000000;fill-opacity:0"
     transform="translate(-165.84574,-80.55454)">
    <text
       xml:space="preserve"
       style="font-style:normal;font-variant:normal;font-weight:normal;font-stretch:normal;font-size:108.165px;line-height:0;font-family:Superclarendon;-inkscape-font-specification:'Superclarendon, Normal';font-variant-ligatures:normal;font-variant-caps:normal;font-variant-numeric:normal;font-variant-east-asian:normal;text-align:start;writing-mode:lr-tb;direction:ltr;text-anchor:start;fill:#ffffff;fill-opacity:0.998611;stroke:none;stroke-width:0;stroke-dasharray:none;stroke-opacity:0.252174"
       x="405.85782"
       y="318.67563"
       id="text9"
       transform="scale(0.68786937,1.4537644)"><tspan
         id="tspan9"
         x="405.85782"
         y="318.67563"
         style="font-style:normal;font-variant:normal;font-weight:600;font-stretch:normal;font-size:108.165px;font-family:Lora;-inkscape-font-specification:'Lora, Semi-Bold';font-variant-ligatures:normal;font-variant-caps:normal;font-variant-numeric:normal;font-variant-east-asian:normal;fill:#ffffff;fill-opacity:0.998611;stroke-width:0">WOODENIZR</tspan></text>
  </g>
  <g
     id="layer3"
     transform="translate(-165.84574,-80.55454)">
    <text
       xml:space="preserve"
       style="font-style:normal;font-variant:normal;font-weight:600;font-stretch:normal;font-size:89.0151px;line-height:0;font-family:Lora;-inkscape-font-specification:'Lora, Semi-Bold';font-variant-ligatures:normal;font-variant-caps:normal;font-variant-numeric:normal;font-variant-east-asian:normal;text-align:start;writing-mode:lr-tb;direction:ltr;text-anchor:start;fill:#ffffff;fill-opacity:0.998611;stroke-width:0;stroke-opacity:0.252174"
       x="353.09943"
       y="396.74973"
       id="text1"
       transform="scale(0.7865813,1.2713244)"><tspan
         id="tspan1"
         x="353.09943"
         y="396.74973"
         style="font-style:normal;font-variant:normal;font-weight:500;font-stretch:normal;font-size:35.606px;font-family:'Roboto Slab';-inkscape-font-specification:'Roboto Slab, Medium';font-variant-ligatures:normal;font-variant-caps:normal;font-variant-numeric:normal;font-variant-east-asian:normal;fill:#ffffff;fill-opacity:0.998611;stroke-width:0">wood and more deliver to your door</tspan></text>
  </g>
</svg>
